<svg id="Layer_1" data-name="Layer 1" xmlns="http://www.w3.org/2000/svg" viewBox="0 0 261.83 130.69"><defs><style>.cls-1{fill:#9c9d9d;}.cls-1,.cls-2{fill-rule:evenodd;}.cls-2{fill:#0db5e6;}</style></defs><title>daylightlogo</title><path class="cls-1" d="M-530.31,4.37l-36.82-36.82a4,4,0,0,1-.68-0.92C-541.2-30.94-532.29-20.2-530.31,4.37Z" transform="translate(653.27 81.14)"/><path class="cls-2" d="M-476.78-33.91a4,4,0,0,1-.93,1.46L-519.57,9.42a4,4,0,0,1-5.66,0l-1.7-1.7C-525.73-27-516.72-33.78-476.78-33.91Z" transform="translate(653.27 81.14)"/><path class="cls-1" d="M-526.85-78.39l1.58-1.58a4,4,0,0,1,5.66,0l41.86,41.86a4,4,0,0,1,.93,1.46C-511.15-36.82-524.82-44.67-526.85-78.39Z" transform="translate(653.27 81.14)"/><path class="cls-2" d="M-567.13-38.11l37-37c-1.46,28.31-9.2,36.54-37.79,38.14A4,4,0,0,1-567.13-38.11Z" transform="translate(653.27 81.14)"/><path class="cls-1" d="M-412.09,49.35V28.61h-12.27V21.79h32.92v6.82H-403.7V49.35h-8.39Zm-129.2,0V21.79h8.39V42.53h19v6.82h-27.36Zm29.7,0V21.79h8.39V49.35h-8.39Zm46.76-18.26H-473q-0.12-3-3.41-3.06h-5.12c-0.89,0-2,0-3.27,0l-2.67,0a6,6,0,0,0-3.24.66,3.68,3.68,0,0,0-1.39,2.95c-0.08,1-.12,2.44-0.12,4.48q0,3.81.63,5c0.65,1.24,2.24,1.9,4.79,2,0.36,0,2.53,0,6.49,0,2.29,0,3.69,0,4.2-.08a4.07,4.07,0,0,0,2.45-.9A3.28,3.28,0,0,0-473,39.8c0-.17,0-0.45,0-0.83h-10.64V33.81h18.8v3.82a35.87,35.87,0,0,1-.43,6.62q-1.06,5.07-7.71,5.25-1.5,0-10.51,0-5.9,0-8.52-.2-6.27-.49-7.85-4.94-0.85-2.4-.85-8.45,0-6.73,1-9.34a6.88,6.88,0,0,1,5.06-4.21q3-.78,12.51-0.78,7.36,0,10,.21,5.84,0.55,6.92,4.84a19.17,19.17,0,0,1,.39,4.41h0Zm2.48,18.26V21.79H-454V32h19.09V21.79h8.39V49.35h-8.39V38.81H-454V49.35h-8.39Z" transform="translate(653.27 81.14)"/><path class="cls-2" d="M-566.28,49.35V39.79l-15.74-18h10.71l9.3,11.42,9.22-11.42h10.49l-15.56,18v9.55h-8.43Zm-87,0V21.79h23.84a36.58,36.58,0,0,1,6.16.44,7.32,7.32,0,0,1,5.49,3.66c0.94,1.69,1.41,4.93,1.41,9.69a52.77,52.77,0,0,1-.22,6q-0.95,6.52-6.76,7.49a35.31,35.31,0,0,1-5,.24h-24.93Zm8.39-6.57h14.08a12.9,12.9,0,0,0,3.42-.32A3.46,3.46,0,0,0-625,39.61a22.58,22.58,0,0,0,.22-4q0-4.07-.91-5.36-1.15-1.63-5-1.63h-14.22V42.78h0Zm28.34,6.57h9.48l2.62-4.92h17.79l2.73,4.92h9.18l-15.07-27.56h-11.24l-15.49,27.56h0Zm15.14-10.66,5.86-11,6,11H-601.4Z" transform="translate(653.27 81.14)"/><path class="cls-2" d="M-528-28.75a6.84,6.84,0,0,0,6.83-6.82A6.84,6.84,0,0,0-528-42.4a6.84,6.84,0,0,0-6.83,6.83A6.84,6.84,0,0,0-528-28.75Z" transform="translate(653.27 81.14)"/></svg>