<svg id="Layer_1" data-name="Layer 1" xmlns="http://www.w3.org/2000/svg" viewBox="0 0 264.93 145.39"><defs><style>.cls-1{fill:#9c9d9d;}.cls-1,.cls-2{fill-rule:evenodd;}.cls-2,.cls-3{fill:#0db5e6;}</style></defs><title>daylightlogo</title><path class="cls-1" d="M-530.31,4.37l-36.82-36.82a4,4,0,0,1-.68-0.92C-541.2-30.94-532.29-20.2-530.31,4.37Z" transform="translate(653.27 81.14)"/><path class="cls-2" d="M-476.78-33.91a4,4,0,0,1-.93,1.46L-519.57,9.42a4,4,0,0,1-5.66,0l-1.7-1.7C-525.73-27-516.72-33.78-476.78-33.91Z" transform="translate(653.27 81.14)"/><path class="cls-1" d="M-526.85-78.39l1.58-1.58a4,4,0,0,1,5.66,0l41.86,41.86a4,4,0,0,1,.93,1.46C-511.15-36.82-524.82-44.67-526.85-78.39Z" transform="translate(653.27 81.14)"/><path class="cls-2" d="M-567.13-38.11l37-37c-1.46,28.31-9.2,36.54-37.79,38.14A4,4,0,0,1-567.13-38.11Z" transform="translate(653.27 81.14)"/><path class="cls-1" d="M-412.09,49.35V28.61h-12.27V21.79h32.92v6.82H-403.7V49.35h-8.39Zm-129.2,0V21.79h8.39V42.53h19v6.82h-27.36Zm29.7,0V21.79h8.39V49.35h-8.39Zm46.76-18.26H-473q-0.12-3-3.41-3.06h-5.12c-0.89,0-2,0-3.27,0l-2.67,0a6,6,0,0,0-3.24.66,3.68,3.68,0,0,0-1.39,2.95c-0.08,1-.12,2.44-0.12,4.48q0,3.81.63,5c0.65,1.24,2.24,1.9,4.79,2,0.36,0,2.53,0,6.49,0,2.29,0,3.69,0,4.2-.08a4.07,4.07,0,0,0,2.45-.9A3.28,3.28,0,0,0-473,39.8c0-.17,0-0.45,0-0.83h-10.64V33.81h18.8v3.82a35.87,35.87,0,0,1-.43,6.62q-1.06,5.07-7.71,5.25-1.5,0-10.51,0-5.9,0-8.52-.2-6.27-.49-7.85-4.94-0.85-2.4-.85-8.45,0-6.73,1-9.34a6.88,6.88,0,0,1,5.06-4.21q3-.78,12.51-0.78,7.36,0,10,.21,5.84,0.55,6.92,4.84a19.17,19.17,0,0,1,.39,4.41h0Zm2.48,18.26V21.79H-454V32h19.09V21.79h8.39V49.35h-8.39V38.81H-454V49.35h-8.39Z" transform="translate(653.27 81.14)"/><path class="cls-2" d="M-566.28,49.35V39.79l-15.74-18h10.71l9.3,11.42,9.22-11.42h10.49l-15.56,18v9.55h-8.43Zm-87,0V21.79h23.84a36.58,36.58,0,0,1,6.16.44,7.32,7.32,0,0,1,5.49,3.66c0.94,1.69,1.41,4.93,1.41,9.69a52.77,52.77,0,0,1-.22,6q-0.95,6.52-6.76,7.49a35.31,35.31,0,0,1-5,.24h-24.93Zm8.39-6.57h14.08a12.9,12.9,0,0,0,3.42-.32A3.46,3.46,0,0,0-625,39.61a22.58,22.58,0,0,0,.22-4q0-4.07-.91-5.36-1.15-1.63-5-1.63h-14.22V42.78h0Zm28.34,6.57h9.48l2.62-4.92h17.79l2.73,4.92h9.18l-15.07-27.56h-11.24l-15.49,27.56h0Zm15.14-10.66,5.86-11,6,11H-601.4Z" transform="translate(653.27 81.14)"/><path class="cls-2" d="M-528-28.75a6.84,6.84,0,0,0,6.83-6.82A6.84,6.84,0,0,0-528-42.4a6.84,6.84,0,0,0-6.83,6.83A6.84,6.84,0,0,0-528-28.75Z" transform="translate(653.27 81.14)"/><path class="cls-3" d="M-645.06,56.35l2.74,7h0.18l2.79-7h0.91l-3.22,7.88h-1.16l-2.72-7-2.7,7h-1.16l-3.22-7.88h0.91l2.79,7h0.18l2.74-7h0.93Z" transform="translate(653.27 81.14)"/><path class="cls-3" d="M-628.39,61.53a2.87,2.87,0,0,1-.63,2.19,3.44,3.44,0,0,1-2.2.51h-3.45a3.38,3.38,0,0,1-2.27-.6,2.75,2.75,0,0,1-.66-2.1V59.08a3,3,0,0,1,.64-2.17,3.2,3.2,0,0,1,2.29-.64h3.45a3.23,3.23,0,0,1,2.13.54,3,3,0,0,1,.7,2.27v2.45ZM-629.2,59a2.17,2.17,0,0,0-.41-1.56,2.42,2.42,0,0,0-1.62-.39h-3.45a2.48,2.48,0,0,0-1.62.41,2,2,0,0,0-.48,1.54v2.52a2,2,0,0,0,.45,1.51,2.58,2.58,0,0,0,1.64.39h3.45a2.5,2.5,0,0,0,1.63-.37,2.14,2.14,0,0,0,.4-1.53V59Z" transform="translate(653.27 81.14)"/><path class="cls-3" d="M-626.3,61v3.23h-0.82V56.37h5.67a3.05,3.05,0,0,1,2.12.64,2.08,2.08,0,0,1,.62,1.62,2.09,2.09,0,0,1-.35,1.27,2.38,2.38,0,0,1-.76.62,1,1,0,0,1,.68.53,2.58,2.58,0,0,1,.31,1.34v1.84h-0.82V62.3a1.4,1.4,0,0,0-.29-1,1.29,1.29,0,0,0-.94-0.29h-5.42Zm0-3.83v3h5.1a1.76,1.76,0,0,0,1.22-.37,1.76,1.76,0,0,0,.45-1.35,1.18,1.18,0,0,0-.44-0.95,1.78,1.78,0,0,0-1.19-.37h-5.16Z" transform="translate(653.27 81.14)"/><path class="cls-3" d="M-617.32,64.23V56.35h0.82v7.09h5.93v0.79h-6.75Z" transform="translate(653.27 81.14)"/><path class="cls-3" d="M-609.2,56.35h6.08a3.08,3.08,0,0,1,2.19.6,3.21,3.21,0,0,1,.6,2.26V61.3a3.35,3.35,0,0,1-.58,2.23,2.86,2.86,0,0,1-2.21.7h-6.08V56.35Zm0.82,7.09H-603a2,2,0,0,0,1.58-.49,2.87,2.87,0,0,0,.33-1.65V59.21a2.53,2.53,0,0,0-.39-1.64,2,2,0,0,0-1.53-.43h-5.32v6.29Z" transform="translate(653.27 81.14)"/><path class="cls-3" d="M-592.09,56.35l2.74,7h0.18l2.79-7h0.91l-3.22,7.88h-1.16l-2.72-7-2.7,7h-1.16l-3.22-7.88h0.91l2.79,7h0.18l2.74-7h0.93Z" transform="translate(653.27 81.14)"/><path class="cls-3" d="M-583.25,64.23h-0.82V56.35h0.82v7.88Z" transform="translate(653.27 81.14)"/><path class="cls-3" d="M-581.25,56.35h6.08a3.08,3.08,0,0,1,2.19.6,3.21,3.21,0,0,1,.6,2.26V61.3a3.35,3.35,0,0,1-.58,2.23,2.86,2.86,0,0,1-2.21.7h-6.08V56.35Zm0.82,7.09h5.33a2,2,0,0,0,1.58-.49,2.87,2.87,0,0,0,.33-1.65V59.21a2.53,2.53,0,0,0-.39-1.64,2,2,0,0,0-1.53-.43h-5.32v6.29Z" transform="translate(653.27 81.14)"/><path class="cls-3" d="M-571.11,64.23V56.35h7v0.79h-6.16v2.62h6v0.79h-6v2.88h6.16v0.79h-7Z" transform="translate(653.27 81.14)"/><path class="cls-3" d="M-559.12,64.23V56.35h5.85q2.74,0,2.74,2a2,2,0,0,1-.35,1.26,1.2,1.2,0,0,1-.63.44,1.36,1.36,0,0,1,.49.23,1.85,1.85,0,0,1,.73,1.61,2.16,2.16,0,0,1-.7,1.81,3.39,3.39,0,0,1-2.06.5h-6.06Zm0.82-7.09v2.57h5.36a2.16,2.16,0,0,0,1.2-.25,1.15,1.15,0,0,0,.4-1,1.24,1.24,0,0,0-.35-1,1.87,1.87,0,0,0-1.25-.34h-5.36Zm0,3.37v2.93h5.56a1.8,1.8,0,0,0,1.23-.36,1.47,1.47,0,0,0,.41-1.16,1.27,1.27,0,0,0-.43-1.08,2.07,2.07,0,0,0-1.27-.33h-5.49Z" transform="translate(653.27 81.14)"/><path class="cls-3" d="M-549,64.23V56.35h0.82v7.09h5.93v0.79H-549Z" transform="translate(653.27 81.14)"/><path class="cls-3" d="M-531.81,61.53a2.87,2.87,0,0,1-.63,2.19,3.44,3.44,0,0,1-2.2.51h-3.45a3.38,3.38,0,0,1-2.27-.6,2.75,2.75,0,0,1-.66-2.1V59.08a3,3,0,0,1,.64-2.17,3.2,3.2,0,0,1,2.29-.64h3.45a3.23,3.23,0,0,1,2.13.54,3,3,0,0,1,.7,2.27v2.45ZM-532.62,59a2.17,2.17,0,0,0-.41-1.56,2.42,2.42,0,0,0-1.62-.39h-3.45a2.48,2.48,0,0,0-1.62.41A2,2,0,0,0-540.2,59v2.52a2,2,0,0,0,.45,1.51,2.58,2.58,0,0,0,1.64.39h3.45a2.5,2.5,0,0,0,1.63-.37,2.14,2.14,0,0,0,.4-1.53V59Z" transform="translate(653.27 81.14)"/><path class="cls-3" d="M-524.44,64.25h-3.45a3.2,3.2,0,0,1-2.25-.63,3,3,0,0,1-.65-2.18V59.15a3.06,3.06,0,0,1,.66-2.22,3.1,3.1,0,0,1,2.24-.66h3.45q2.86,0,2.86,2.25h-0.82a1.28,1.28,0,0,0-.42-1.05,2.57,2.57,0,0,0-1.61-.4h-3.45a2.37,2.37,0,0,0-1.65.44,2.31,2.31,0,0,0-.45,1.65v2.29a2.18,2.18,0,0,0,.45,1.59,2.42,2.42,0,0,0,1.65.43h3.45a2.69,2.69,0,0,0,1.57-.35,1.29,1.29,0,0,0,.46-1.11h0.82a2.08,2.08,0,0,1-.66,1.69A3.42,3.42,0,0,1-524.44,64.25Z" transform="translate(653.27 81.14)"/><path class="cls-3" d="M-520.35,64.23V56.35h0.82v3.38h1.32l5-3.38h1.43l-5.56,3.77,5.69,4.12h-1.43l-5.08-3.71h-1.35v3.71h-0.82Z" transform="translate(653.27 81.14)"/><path class="cls-3" d="M-504.71,64.25h-3.45a3.2,3.2,0,0,1-2.25-.63,3,3,0,0,1-.65-2.18V59.15a3.06,3.06,0,0,1,.66-2.22,3.1,3.1,0,0,1,2.24-.66h3.45q2.86,0,2.86,2.25h-0.82a1.28,1.28,0,0,0-.42-1.05,2.57,2.57,0,0,0-1.61-.4h-3.45a2.37,2.37,0,0,0-1.65.44,2.31,2.31,0,0,0-.45,1.65v2.29A2.18,2.18,0,0,0-509.8,63a2.42,2.42,0,0,0,1.65.43h3.45a2.69,2.69,0,0,0,1.57-.35,1.29,1.29,0,0,0,.46-1.11h0.82a2.08,2.08,0,0,1-.66,1.69A3.42,3.42,0,0,1-504.71,64.25Z" transform="translate(653.27 81.14)"/><path class="cls-3" d="M-500.43,64.23V56.35h0.82v3.41h7V56.35h0.82v7.88h-0.82V60.58h-7v3.65h-0.82Z" transform="translate(653.27 81.14)"/><path class="cls-3" d="M-490.22,64.23h-0.91l4.08-7.88h1.25l4.08,7.88h-1l-1-2h-5.53Zm1.45-2.77h4.67l-2.34-4.55Z" transform="translate(653.27 81.14)"/><path class="cls-3" d="M-479.65,64.23h-0.82V56.35h0.82v7.88Z" transform="translate(653.27 81.14)"/><path class="cls-3" d="M-477.77,64.23V56.35H-476l6.06,7.07V56.35h0.82v7.88h-1.18L-476.5,57H-477v7.27h-0.82Z" transform="translate(653.27 81.14)"/><path class="cls-3" d="M-464.14,64.23V56.35h5.31a3.23,3.23,0,0,1,2.12.56,2.36,2.36,0,0,1,.65,1.88,2,2,0,0,1-.62,1.74,3.74,3.74,0,0,1-2.14.45h-4.5v3.25h-0.82Zm0.82-4h4.74a2.39,2.39,0,0,0,1.33-.25,1.39,1.39,0,0,0,.37-1.15,1.77,1.77,0,0,0-.37-1.27,1.73,1.73,0,0,0-1.25-.37h-4.82v3Z" transform="translate(653.27 81.14)"/><path class="cls-3" d="M-454.84,64.23V56.35H-454v7.09h5.93v0.79h-6.75Z" transform="translate(653.27 81.14)"/><path class="cls-3" d="M-446.49,64.23h-0.91l4.08-7.88h1.25l4.08,7.88h-1l-1-2h-5.53Zm1.45-2.77h4.67l-2.34-4.55Z" transform="translate(653.27 81.14)"/><path class="cls-3" d="M-437.64,56.35h8.48v0.79H-433v7.09h-0.82V57.14h-3.82V56.35Z" transform="translate(653.27 81.14)"/><path class="cls-3" d="M-428.23,64.23V56.35h7v0.79h-6.16v2.62h6v0.79h-6v3.67h-0.82Z" transform="translate(653.27 81.14)"/><path class="cls-3" d="M-410.74,61.53a2.87,2.87,0,0,1-.63,2.19,3.44,3.44,0,0,1-2.2.51H-417a3.38,3.38,0,0,1-2.27-.6,2.75,2.75,0,0,1-.66-2.1V59.08a3,3,0,0,1,.64-2.17,3.2,3.2,0,0,1,2.29-.64h3.45a3.23,3.23,0,0,1,2.13.54,3,3,0,0,1,.7,2.27v2.45ZM-411.56,59a2.17,2.17,0,0,0-.41-1.56,2.42,2.42,0,0,0-1.62-.39H-417a2.48,2.48,0,0,0-1.62.41,2,2,0,0,0-.48,1.54v2.52a2,2,0,0,0,.45,1.51,2.58,2.58,0,0,0,1.64.39h3.45a2.5,2.5,0,0,0,1.63-.37,2.14,2.14,0,0,0,.4-1.53V59Z" transform="translate(653.27 81.14)"/><path class="cls-3" d="M-408.66,61v3.23h-0.82V56.37h5.67a3.05,3.05,0,0,1,2.12.64,2.08,2.08,0,0,1,.62,1.62,2.09,2.09,0,0,1-.35,1.27,2.38,2.38,0,0,1-.76.62,1,1,0,0,1,.68.53,2.58,2.58,0,0,1,.31,1.34v1.84H-402V62.3a1.4,1.4,0,0,0-.29-1,1.29,1.29,0,0,0-.94-0.29h-5.42Zm0-3.83v3h5.1a1.76,1.76,0,0,0,1.22-.37,1.76,1.76,0,0,0,.45-1.35,1.18,1.18,0,0,0-.44-0.95,1.78,1.78,0,0,0-1.19-.37h-5.16Z" transform="translate(653.27 81.14)"/><path class="cls-3" d="M-388.33,64.23h-0.82V57h-0.45l-4.24,7.25h-0.42L-398.51,57H-399v7.25h-0.82V56.35H-398l4,6.73,4-6.73h1.75v7.88Z" transform="translate(653.27 81.14)"/></svg>