<svg id="Layer_1" data-name="Layer 1" xmlns="http://www.w3.org/2000/svg" viewBox="0 0 261.83 145.02"><defs><style>.cls-1{fill:#9c9d9d;}.cls-1,.cls-2{fill-rule:evenodd;}.cls-2{fill:#0db5e6;}</style></defs><title>logo</title><path class="cls-1" d="M-547.49-702.57l-36.82-36.82a4,4,0,0,1-.68-0.92C-558.38-737.88-549.47-727.14-547.49-702.57Z" transform="translate(670.44 788.08)"/><path class="cls-2" d="M-494-740.85a4,4,0,0,1-.93,1.46l-41.86,41.86a4,4,0,0,1-5.66,0l-1.7-1.7C-542.91-734-533.9-740.72-494-740.85Z" transform="translate(670.44 788.08)"/><path class="cls-1" d="M-544-785.33l1.58-1.58a4,4,0,0,1,5.66,0L-494.92-745a4,4,0,0,1,.93,1.46C-528.32-743.76-542-751.61-544-785.33Z" transform="translate(670.44 788.08)"/><path class="cls-2" d="M-584.3-745l37-37c-1.46,28.31-9.2,36.54-37.79,38.14A4,4,0,0,1-584.3-745Z" transform="translate(670.44 788.08)"/><path class="cls-1" d="M-429.26-657.6v-20.74h-12.27v-6.82h32.92v6.82h-12.26v20.74h-8.39Zm-129.2,0v-27.56h8.39v20.74h19v6.82h-27.36Zm29.7,0v-27.56h8.39v27.56h-8.39ZM-482-675.86h-8.21q-0.12-3-3.41-3.06h-5.12c-0.89,0-2,0-3.27,0l-2.67,0a6,6,0,0,0-3.24.66,3.68,3.68,0,0,0-1.39,2.95c-0.08,1-.12,2.44-0.12,4.48q0,3.81.63,5c0.65,1.24,2.24,1.9,4.79,2,0.36,0,2.53,0,6.49,0,2.29,0,3.69,0,4.2-.08a4.08,4.08,0,0,0,2.45-.9,3.28,3.28,0,0,0,.74-2.41q0-.26,0-0.83H-500.8v-5.16H-482v3.82a35.93,35.93,0,0,1-.43,6.62q-1.06,5.07-7.71,5.25-1.5,0-10.51,0-5.9,0-8.52-.2-6.27-.48-7.85-4.94-0.85-2.4-.85-8.45,0-6.73,1-9.34a6.88,6.88,0,0,1,5.06-4.21q3-.78,12.51-0.78,7.36,0,10,.21,5.84,0.55,6.92,4.84a19.18,19.18,0,0,1,.39,4.41h0Zm2.48,18.26v-27.56h8.39v10.2h19.09v-10.2h8.39v27.56h-8.39v-10.54h-19.09v10.54h-8.39Z" transform="translate(670.44 788.08)"/><path class="cls-2" d="M-583.45-657.6v-9.55l-15.74-18h10.71l9.3,11.42,9.22-11.42h10.49l-15.55,18v9.55h-8.43Zm-87,0v-27.56h23.84a36.59,36.59,0,0,1,6.16.44,7.32,7.32,0,0,1,5.49,3.66c0.94,1.69,1.41,4.93,1.41,9.69a52.82,52.82,0,0,1-.22,6q-0.95,6.52-6.76,7.49a35.33,35.33,0,0,1-5,.24h-24.93Zm8.39-6.57H-648a12.9,12.9,0,0,0,3.42-.32,3.47,3.47,0,0,0,2.36-2.84,22.63,22.63,0,0,0,.22-4q0-4.07-.91-5.36-1.15-1.63-5-1.63h-14.22v14.13h0Zm28.34,6.57h9.48l2.62-4.92h17.79l2.73,4.92h9.18L-607-685.15h-11.24l-15.49,27.56h0Zm15.14-10.66,5.86-11,6,11h-11.88Z" transform="translate(670.44 788.08)"/><path class="cls-2" d="M-545.14-735.69a6.84,6.84,0,0,0,6.83-6.83,6.84,6.84,0,0,0-6.83-6.83,6.84,6.84,0,0,0-6.83,6.83A6.84,6.84,0,0,0-545.14-735.69Z" transform="translate(670.44 788.08)"/><path class="cls-2" d="M-669.62-643.08h-0.82V-651h0.82v7.92h0Zm1.89,0V-651h1.82l6.08,7.1V-651H-659v7.92h-1.18l-6.27-7.3h-0.46v7.3h-0.82Zm9.62-7.92h8.52v0.8h-3.86v7.12h-0.82v-7.12h-3.84V-651h0Zm9.46,7.92V-651h7v0.8h-6.19v2.63h6v0.8h-6v2.89h6.19v0.8h-7Zm9.27-7.1v3.05h5.13a1.77,1.77,0,0,0,1.23-.38,1.77,1.77,0,0,0,.46-1.36,1.19,1.19,0,0,0-.44-1,1.79,1.79,0,0,0-1.19-.37h-5.18Zm0,3.85v3.25h-0.82V-651h5.7a3.07,3.07,0,0,1,2.13.64,2.09,2.09,0,0,1,.63,1.63,2.1,2.1,0,0,1-.35,1.28,2.38,2.38,0,0,1-.76.63,1,1,0,0,1,.68.54,2.59,2.59,0,0,1,.31,1.34v1.85h-0.82V-645a1.4,1.4,0,0,0-.3-1,1.29,1.29,0,0,0-.95-0.3h-5.45Zm8.86-2.43a2.14,2.14,0,0,1,.62-1.71,3,3,0,0,1,2-.53h4q2.69,0,2.69,2.24h-0.82a1.27,1.27,0,0,0-.43-1.06,2.6,2.6,0,0,0-1.61-.39h-3.81a2.13,2.13,0,0,0-1.44.35,1.45,1.45,0,0,0-.33,1.09,1,1,0,0,0,.36.93,3.3,3.3,0,0,0,1.66.29h3.53a3.94,3.94,0,0,1,2.24.5,1.8,1.8,0,0,1,.7,1.58v0.16a2.15,2.15,0,0,1-.6,1.73,3.13,3.13,0,0,1-2,.5h-4.08a2.87,2.87,0,0,1-1.88-.55,2.1,2.1,0,0,1-.69-1.71h0.82a1.28,1.28,0,0,0,.42,1.06,2.56,2.56,0,0,0,1.61.4h3.74a2.28,2.28,0,0,0,1.39-.35,1.31,1.31,0,0,0,.46-1.11,1.32,1.32,0,0,0-.4-1.09,2.53,2.53,0,0,0-1.5-.32h-4a3.29,3.29,0,0,1-2.11-.5,1.91,1.91,0,0,1-.51-1.51h0Zm10.14-2.24h8.52v0.8h-3.86v7.12h-0.82v-7.12h-3.84V-651h0Zm9.78,7.92h-0.91l4.1-7.92h1.25l4.1,7.92h-1l-1-2h-5.56l-1,2h0Zm1.46-2.78h4.69l-2.35-4.57-2.35,4.57h0Zm7.43-5.14h8.52v0.8h-3.86v7.12h-0.82v-7.12h-3.84V-651h0Zm9.46,7.92V-651h7v0.8h-6.19v2.63h6v0.8h-6v2.89h6.19v0.8h-7Zm12.88-7.12v2.59H-574a2.15,2.15,0,0,0,1.21-.25,1.15,1.15,0,0,0,.4-1,1.24,1.24,0,0,0-.35-1,1.87,1.87,0,0,0-1.25-.34h-5.39Zm-0.82,7.12V-651h5.88q2.76,0,2.76,2a2,2,0,0,1-.35,1.27,1.2,1.2,0,0,1-.64.45,1.37,1.37,0,0,1,.49.23,1.86,1.86,0,0,1,.73,1.62,2.17,2.17,0,0,1-.71,1.82,3.42,3.42,0,0,1-2.07.5h-6.08Zm0.82-3.74v2.94h5.58a1.8,1.8,0,0,0,1.23-.36,1.48,1.48,0,0,0,.41-1.16,1.27,1.27,0,0,0-.43-1.08,2.08,2.08,0,0,0-1.28-.33h-5.52Zm9.39,3.74V-651h0.82v7.12h6v0.8H-570Zm16.41-5.24a2.17,2.17,0,0,0-.42-1.57,2.43,2.43,0,0,0-1.62-.39h-3.46a2.49,2.49,0,0,0-1.63.42,2,2,0,0,0-.48,1.54v2.53a2,2,0,0,0,.46,1.52,2.59,2.59,0,0,0,1.65.39h3.46a2.5,2.5,0,0,0,1.64-.38,2.15,2.15,0,0,0,.4-1.54v-2.53h0Zm0.82,2.53a2.89,2.89,0,0,1-.64,2.2,3.46,3.46,0,0,1-2.21.51h-3.46a3.39,3.39,0,0,1-2.28-.6,2.77,2.77,0,0,1-.66-2.11v-2.46a3,3,0,0,1,.64-2.18,3.22,3.22,0,0,1,2.3-.64h3.46a3.24,3.24,0,0,1,2.14.55,3,3,0,0,1,.71,2.28v2.46h0Zm7.41,2.73h-3.46a3.22,3.22,0,0,1-2.26-.63,3,3,0,0,1-.66-2.19v-2.3a3.07,3.07,0,0,1,.67-2.23,3.11,3.11,0,0,1,2.25-.67h3.46q2.87,0,2.87,2.26h-0.82a1.28,1.28,0,0,0-.42-1.06,2.58,2.58,0,0,0-1.62-.4h-3.46a2.38,2.38,0,0,0-1.66.44,2.31,2.31,0,0,0-.45,1.66v2.3a2.19,2.19,0,0,0,.45,1.6,2.43,2.43,0,0,0,1.66.43h3.46a2.7,2.7,0,0,0,1.57-.35,1.29,1.29,0,0,0,.47-1.11h0.82a2.09,2.09,0,0,1-.67,1.7,3.44,3.44,0,0,1-2.21.56h0Zm4.1,0V-651h0.82v3.4h1.32l5-3.4h1.44l-5.58,3.78,5.72,4.14H-534l-5.1-3.73h-1.36v3.73h-0.82Zm15.71,0H-529a3.22,3.22,0,0,1-2.26-.63,3,3,0,0,1-.66-2.19v-2.3a3.08,3.08,0,0,1,.67-2.23,3.11,3.11,0,0,1,2.25-.67h3.46q2.87,0,2.87,2.26h-0.82a1.28,1.28,0,0,0-.42-1.06,2.58,2.58,0,0,0-1.62-.4H-529a2.38,2.38,0,0,0-1.66.44,2.31,2.31,0,0,0-.45,1.66v2.3a2.19,2.19,0,0,0,.45,1.6,2.43,2.43,0,0,0,1.66.43h3.46a2.7,2.7,0,0,0,1.57-.35,1.29,1.29,0,0,0,.47-1.11h0.82a2.09,2.09,0,0,1-.67,1.7,3.44,3.44,0,0,1-2.2.56h0Zm4.31,0V-651h0.82v3.43h7V-651h0.82v7.92h-0.82v-3.67h-7v3.67h-0.82Zm10.25,0h-0.91l4.1-7.92h1.25l4.1,7.92h-1l-1-2H-510l-1,2h0Zm1.46-2.78h4.69l-2.35-4.57-2.35,4.57h0Zm9.16,2.78h-0.82V-651h0.82v7.92h0Zm1.89,0V-651h1.82l6.08,7.1V-651h0.82v7.92h-1.19l-6.27-7.3h-0.46v7.3h-0.82Zm13.7,0V-651h5.33a3.24,3.24,0,0,1,2.13.56,2.37,2.37,0,0,1,.65,1.88,2.05,2.05,0,0,1-.62,1.75,3.75,3.75,0,0,1-2.15.46H-484v3.27h-0.82Zm0.82-4.07h4.76a2.4,2.4,0,0,0,1.33-.25,1.4,1.4,0,0,0,.38-1.16,1.77,1.77,0,0,0-.37-1.27,1.74,1.74,0,0,0-1.26-.37H-484v3.05h0Zm8.52,4.07V-651h0.82v7.12h6v0.8h-6.78Zm8.39,0H-468l4.1-7.92h1.25l4.1,7.92h-1l-1-2H-466l-1,2h0Zm1.46-2.78h4.69l-2.35-4.57-2.35,4.57h0Zm7.43-5.14h8.52v0.8h-3.86v7.12h-0.82v-7.12h-3.84V-651h0Zm9.46,7.92V-651h7v0.8h-6.19v2.63h6v0.8h-6v3.69h-0.82Zm16.75-5.24a2.18,2.18,0,0,0-.42-1.57,2.43,2.43,0,0,0-1.62-.39h-3.46a2.49,2.49,0,0,0-1.63.42,2,2,0,0,0-.48,1.54v2.53a2,2,0,0,0,.46,1.52,2.59,2.59,0,0,0,1.65.39H-434a2.5,2.5,0,0,0,1.64-.38,2.15,2.15,0,0,0,.4-1.54v-2.53h0Zm0.82,2.53a2.89,2.89,0,0,1-.64,2.2,3.46,3.46,0,0,1-2.21.51h-3.46a3.39,3.39,0,0,1-2.28-.6,2.76,2.76,0,0,1-.66-2.11v-2.46a3,3,0,0,1,.64-2.18,3.22,3.22,0,0,1,2.3-.64H-434a3.24,3.24,0,0,1,2.14.55,3,3,0,0,1,.71,2.28v2.46h0Zm2.1-4.39v3.05h5.13a1.77,1.77,0,0,0,1.23-.38,1.77,1.77,0,0,0,.46-1.36,1.19,1.19,0,0,0-.44-1,1.79,1.79,0,0,0-1.19-.37H-429Zm0,3.85v3.25h-0.82V-651h5.7a3.07,3.07,0,0,1,2.13.64,2.09,2.09,0,0,1,.63,1.63,2.1,2.1,0,0,1-.35,1.28,2.37,2.37,0,0,1-.76.63,1,1,0,0,1,.68.54,2.59,2.59,0,0,1,.31,1.34v1.85h-0.82V-645a1.4,1.4,0,0,0-.3-1,1.29,1.29,0,0,0-.95-0.3H-429Zm20.42-4.67h-1.75l-4,6.76-4-6.76h-1.75v7.92h0.82v-7.28h0.47l4.26,7.28h0.42l4.26-7.28h0.46v7.28h0.82V-651Z" transform="translate(670.44 788.08)"/></svg>